<svg width="24" height="24" viewBox="0 0 24 24"  xmlns="http://www.w3.org/2000/svg">
<g clip-path="url(#clip0_5_18)">
<path d="M5.59704 6.30287C5.67857 5.22805 5.85062 4.03925 6.76897 3.47488C6.92102 3.38144 7.07555 3.29208 7.23239 3.20692C8.17949 2.69263 9.29523 3.13766 10.2665 3.60465C10.8074 3.86469 11.3999 3.99947 12 3.99898C12.6001 3.99947 13.1926 3.86469 13.7335 3.60465C14.7048 3.13766 15.8205 2.69263 16.7676 3.20692C16.9247 3.29224 17.0796 3.38177 17.2319 3.4754C18.1497 4.03955 18.3215 5.22764 18.403 6.30187C18.4483 6.89982 18.6278 7.47988 18.928 7.99898C19.2276 8.51907 19.6406 8.96493 20.1363 9.3034C21.0263 9.91118 21.9693 10.6553 21.9979 11.7327C22.0003 11.8222 22.0014 11.9118 22.0014 12.0014C22.0011 13.2383 20.8968 14.0877 19.9232 14.8508C19.5322 15.1572 19.1921 15.5422 18.928 15.999C18.6276 16.5182 18.4481 17.0984 18.4027 17.6966C18.3212 18.7711 18.1493 19.9595 17.2312 20.5235C17.079 20.617 16.9244 20.7063 16.7675 20.7915C15.8204 21.3055 14.7047 20.8606 13.7333 20.3939C13.1925 20.134 12.6 19.9994 12 20C11.3999 19.9995 10.8074 20.1343 10.2665 20.3943C9.29519 20.8613 8.17949 21.3065 7.23226 20.7924C7.07543 20.7072 6.9209 20.6179 6.76885 20.5245C5.85069 19.9605 5.67876 18.7721 5.59728 17.6976C5.55193 17.0994 5.37239 16.5192 5.072 16C4.77229 15.4801 4.35925 15.0344 3.86359 14.6961C2.97355 14.0887 2.0307 13.3448 2.00204 12.2676C1.99731 12.0897 1.9973 11.9116 2.00203 11.7337C2.03067 10.6562 2.97367 9.91219 3.86374 9.3044C4.35941 8.96593 4.77241 8.52007 5.072 7.99998C5.37223 7.48088 5.55169 6.90082 5.59704 6.30287ZM13.5 14.597C13.8439 14.4014 14.1458 14.1398 14.3882 13.8271C14.6306 13.5144 14.8088 13.1569 14.9124 12.7751C15.0161 12.3932 15.0432 11.9947 14.9922 11.6023C14.9412 11.21 14.8131 10.8316 14.6153 10.489C14.4175 10.1464 14.1538 9.84625 13.8395 9.60592C13.5253 9.3656 13.1665 9.18981 12.784 9.08868C12.4015 8.98756 12.0028 8.96309 11.6108 9.01669C11.2188 9.07028 10.8413 9.20089 10.5 9.40098C9.81658 9.80163 9.31938 10.4563 9.11689 11.2222C8.9144 11.9881 9.02307 12.803 9.41918 13.4891C9.81529 14.1751 10.4667 14.6767 11.2312 14.8842C11.9957 15.0918 12.8113 14.9885 13.5 14.597Z" />
</g>
<defs>
<clipPath id="clip0_5_18">
<rect width="24" height="24" fill="white"/>
</clipPath>
</defs>
</svg>
